<svg xmlns="http://www.w3.org/2000/svg" xmlns:xlink="http://www.w3.org/1999/xlink" width="500" zoomAndPan="magnify" viewBox="0 0 375 374.999991" height="500" preserveAspectRatio="xMidYMid meet" version="1.2"><defs><clipPath id="c83e34332f"><path d="M 84.746094 8.101562 L 290.246094 8.101562 L 290.246094 284.851562 L 84.746094 284.851562 Z M 84.746094 8.101562 "/></clipPath><clipPath id="73b2d86658"><path d="M 131 8.101562 L 281 8.101562 L 281 129 L 131 129 Z M 131 8.101562 "/></clipPath><clipPath id="18f46e7668"><path d="M 84.746094 38 L 290.246094 38 L 290.246094 284.851562 L 84.746094 284.851562 Z M 84.746094 38 "/></clipPath><clipPath id="e4761e801e"><path d="M 73.816406 225.386719 L 143.566406 225.386719 L 143.566406 295.136719 L 73.816406 295.136719 Z M 73.816406 225.386719 "/></clipPath></defs><g id="dc1120bb04"><g clip-rule="nonzero" clip-path="url(#c83e34332f)"><path style=" stroke:none;fill-rule:nonzero;fill:#ff66c4;fill-opacity:1;" d="M 271.734375 154.171875 C 267.226562 149.242188 262.019531 144.925781 256.253906 141.269531 C 271.269531 128.226562 280.359375 110.050781 280.359375 87.128906 C 280.359375 39.316406 241.238281 8.097656 193.027344 8.097656 L 128.421875 8.097656 C 104.304688 8.097656 84.753906 27.648438 84.753906 51.765625 L 84.753906 284.714844 L 98.121094 284.714844 C 125.660156 284.714844 147.984375 262.390625 147.984375 234.851562 L 147.984375 188.265625 C 147.984375 187.230469 148.082031 186.203125 148.285156 185.1875 C 148.488281 184.171875 148.789062 183.183594 149.183594 182.226562 C 149.582031 181.269531 150.066406 180.359375 150.640625 179.5 C 151.21875 178.636719 151.871094 177.839844 152.605469 177.109375 C 153.335938 176.375 154.132812 175.722656 154.996094 175.144531 C 155.855469 174.570312 156.765625 174.085938 157.722656 173.6875 C 158.679688 173.292969 159.667969 172.992188 160.683594 172.789062 C 161.699219 172.589844 162.726562 172.488281 163.761719 172.488281 L 200.941406 172.488281 C 216.746094 172.488281 227.019531 183.550781 227.019531 198.964844 C 227.019531 212.855469 218.671875 223.214844 205.445312 225.121094 C 203.953125 225.335938 202.449219 225.441406 200.941406 225.4375 L 163.574219 225.4375 L 163.574219 262.785156 C 163.574219 274.894531 173.390625 284.714844 185.5 284.714844 L 200.929688 284.714844 C 250.328125 284.714844 290.238281 252.707031 290.238281 203.703125 C 290.238281 183.523438 283.289062 166.816406 271.734375 154.171875 Z M 192.601562 116.375 L 147.980469 116.375 L 147.980469 77.832031 C 147.980469 77.144531 148.046875 76.464844 148.179688 75.792969 C 148.316406 75.117188 148.511719 74.464844 148.777344 73.828125 C 149.039062 73.195312 149.359375 72.59375 149.742188 72.019531 C 150.125 71.449219 150.558594 70.921875 151.042969 70.4375 C 151.527344 69.949219 152.058594 69.515625 152.628906 69.136719 C 153.199219 68.753906 153.800781 68.433594 154.4375 68.167969 C 155.070312 67.90625 155.726562 67.707031 156.398438 67.574219 C 157.074219 67.441406 157.753906 67.371094 158.4375 67.371094 L 193.027344 67.371094 C 207.761719 67.371094 217.277344 77.804688 217.132812 92.199219 C 216.996094 105.601562 206.011719 116.375 192.601562 116.375 Z M 192.601562 116.375 "/></g><g clip-rule="nonzero" clip-path="url(#73b2d86658)"><path style=" stroke:none;fill-rule:nonzero;fill:#8c52ff;fill-opacity:1;" d="M 217.113281 90.832031 C 217.128906 91.28125 217.132812 91.738281 217.128906 92.199219 C 216.996094 105.601562 206.011719 116.375 192.601562 116.375 L 187.367188 116.375 L 181.191406 128.625 L 273.609375 118.605469 C 277.96875 109.398438 280.359375 98.890625 280.359375 87.132812 C 280.359375 39.316406 241.238281 8.097656 193.027344 8.097656 L 131.675781 8.097656 C 131.675781 8.097656 215.792969 33.472656 217.113281 90.832031 Z M 217.113281 90.832031 "/></g><g clip-rule="nonzero" clip-path="url(#18f46e7668)"><path style=" stroke:none;fill-rule:nonzero;fill:#8c52ff;fill-opacity:1;" d="M 84.753906 284.714844 L 84.753906 179.101562 C 84.753906 179.101562 85.289062 116.375 147.980469 116.375 L 192.601562 116.375 C 202.941406 116.375 263.011719 112.71875 263.011719 38.0625 C 273.90625 51.03125 280.359375 67.710938 280.359375 87.132812 C 280.359375 110.050781 271.269531 128.226562 256.253906 141.269531 C 256.253906 141.269531 222.828125 172.488281 187.496094 172.488281 L 163.757812 172.488281 C 162.722656 172.488281 161.695312 172.589844 160.679688 172.789062 C 159.664062 172.992188 158.679688 173.292969 157.71875 173.6875 C 156.761719 174.085938 155.855469 174.570312 154.992188 175.144531 C 154.132812 175.722656 153.332031 176.375 152.601562 177.109375 C 151.867188 177.839844 151.214844 178.636719 150.640625 179.5 C 150.0625 180.363281 149.578125 181.269531 149.179688 182.226562 C 148.785156 183.183594 148.484375 184.171875 148.28125 185.1875 C 148.082031 186.203125 147.980469 187.230469 147.980469 188.265625 L 147.980469 234.851562 C 147.980469 262.390625 125.65625 284.714844 98.121094 284.714844 Z M 271.734375 154.171875 C 271.734375 213.730469 230.601562 223.515625 205.4375 225.121094 C 200.628906 225.433594 196.402344 225.4375 193.15625 225.4375 L 163.574219 225.4375 L 163.574219 262.785156 C 163.574219 274.894531 173.390625 284.710938 185.5 284.710938 L 200.929688 284.710938 C 250.328125 284.710938 290.238281 252.707031 290.238281 203.703125 C 290.238281 183.523438 283.289062 166.816406 271.734375 154.171875 Z M 271.734375 154.171875 "/></g><path style=" stroke:none;fill-rule:nonzero;fill:#000000;fill-opacity:1;" d="M 102.890625 268.117188 L 99.878906 268.117188 C 98.484375 268.117188 97.308594 266.941406 97.308594 265.546875 L 97.308594 260.1875 C 97.308594 258.792969 98.484375 257.617188 99.878906 257.617188 L 102.890625 257.617188 C 104.285156 257.617188 105.460938 258.792969 105.460938 260.1875 L 105.460938 265.546875 C 105.460938 266.941406 104.359375 268.117188 102.890625 268.117188 Z M 102.890625 268.117188 "/><path style=" stroke:none;fill-rule:nonzero;fill:#000000;fill-opacity:1;" d="M 115.738281 268.117188 L 112.726562 268.117188 C 111.332031 268.117188 110.160156 266.941406 110.160156 265.546875 L 110.160156 260.1875 C 110.160156 258.792969 111.332031 257.617188 112.726562 257.617188 L 115.738281 257.617188 C 117.132812 257.617188 118.308594 258.792969 118.308594 260.1875 L 118.308594 265.546875 C 118.308594 266.941406 117.132812 268.117188 115.738281 268.117188 Z M 115.738281 268.117188 "/><g clip-rule="nonzero" clip-path="url(#e4761e801e)"><path style=" stroke:none;fill-rule:nonzero;fill:#000000;fill-opacity:1;" d="M 108.691406 225.386719 C 89.453125 225.386719 73.816406 241.023438 73.816406 260.261719 C 73.816406 279.496094 89.453125 295.136719 108.691406 295.136719 L 138.058594 295.136719 C 141.140625 295.136719 143.566406 292.636719 143.566406 289.628906 L 143.566406 260.261719 C 143.566406 241.023438 127.925781 225.386719 108.691406 225.386719 Z M 133.140625 265.179688 C 133.140625 267.457031 131.304688 269.21875 129.101562 269.21875 L 127.265625 269.21875 C 127.117188 269.21875 126.898438 269.21875 126.75 269.144531 C 123.816406 275.382812 116.839844 279.714844 108.691406 279.714844 C 100.539062 279.714844 93.566406 275.382812 90.703125 269.21875 L 88.867188 269.21875 C 86.589844 269.21875 84.828125 267.382812 84.828125 265.179688 L 84.828125 260.554688 C 84.828125 258.277344 86.664062 256.515625 88.867188 256.515625 L 90.628906 256.515625 C 93.125 251.230469 98.703125 247.265625 105.460938 246.308594 L 105.460938 241.90625 C 104.066406 241.097656 103.109375 239.628906 103.109375 237.867188 C 103.109375 235.296875 105.167969 233.242188 107.734375 233.242188 C 110.304688 233.242188 112.363281 235.296875 112.363281 237.867188 C 112.363281 239.554688 111.40625 241.097656 110.011719 241.90625 L 110.011719 246.089844 C 117.574219 246.605469 123.886719 250.714844 126.605469 256.515625 C 126.75 256.515625 126.972656 256.441406 127.117188 256.441406 L 128.953125 256.441406 C 131.230469 256.441406 132.992188 258.277344 132.992188 260.480469 L 132.992188 265.179688 Z M 133.140625 265.179688 "/></g><g style="fill:#8c52ff;fill-opacity:1;"><g transform="translate(48.809077, 320.319428)"><path style="stroke:none" d="M 1.378906 0 L 1.378906 -28.96875 L 26.042969 -29.046875 C 29.453125 -29.046875 32.023438 -28.300781 33.761719 -26.808594 C 35.554688 -25.261719 36.453125 -23.007812 36.453125 -20.039062 C 36.453125 -17.019531 35.410156 -14.78125 33.324219 -13.328125 L 32.5625 -14.421875 L 33.199219 -15.589844 C 34.570312 -14.84375 35.589844 -13.839844 36.257812 -12.585938 C 36.90625 -11.367188 37.226562 -9.847656 37.226562 -8.023438 C 37.226562 -5.023438 36.339844 -2.710938 34.566406 -1.089844 C 32.824219 0.5 30.246094 1.292969 26.824219 1.292969 L 1.378906 1.335938 Z M 4.046875 0 L 2.714844 0 L 2.710938 -1.332031 L 26.824219 -1.371094 C 29.554688 -1.371094 31.535156 -1.933594 32.769531 -3.058594 C 33.964844 -4.152344 34.5625 -5.804688 34.5625 -8.023438 C 34.5625 -9.40625 34.34375 -10.507812 33.90625 -11.332031 C 33.488281 -12.117188 32.828125 -12.757812 31.921875 -13.25 L 30.03125 -14.28125 L 31.800781 -15.511719 C 33.125 -16.4375 33.789062 -17.945312 33.789062 -20.039062 C 33.789062 -22.191406 33.199219 -23.773438 32.023438 -24.789062 C 30.785156 -25.851562 28.796875 -26.382812 26.054688 -26.382812 L 2.71875 -26.304688 L 2.714844 -27.636719 L 4.046875 -27.636719 Z M 25.3125 -21.421875 L 8.914062 -21.421875 L 8.914062 -22.753906 L 10.25 -22.753906 L 10.25 -16.550781 L 8.914062 -16.550781 L 8.914062 -17.886719 L 25.3125 -17.886719 C 26.148438 -17.886719 26.730469 -18.035156 27.066406 -18.335938 C 27.359375 -18.601562 27.507812 -19.066406 27.507812 -19.730469 C 27.507812 -20.328125 27.367188 -20.75 27.089844 -20.988281 C 26.753906 -21.277344 26.160156 -21.421875 25.3125 -21.421875 Z M 25.3125 -24.085938 C 26.816406 -24.085938 27.988281 -23.726562 28.824219 -23.011719 C 29.722656 -22.242188 30.171875 -21.148438 30.171875 -19.730469 C 30.171875 -18.277344 29.730469 -17.152344 28.851562 -16.355469 C 28.007812 -15.597656 26.828125 -15.21875 25.3125 -15.21875 L 7.582031 -15.21875 L 7.582031 -24.085938 Z M 26.089844 -10.257812 L 8.914062 -10.257812 L 8.914062 -11.589844 L 10.25 -11.589844 L 10.25 -5 L 8.914062 -5 L 8.914062 -6.332031 L 26.089844 -6.332031 C 26.910156 -6.332031 27.488281 -6.488281 27.816406 -6.800781 C 28.128906 -7.09375 28.28125 -7.605469 28.28125 -8.335938 C 28.28125 -9.03125 28.132812 -9.519531 27.828125 -9.796875 C 27.496094 -10.105469 26.917969 -10.257812 26.089844 -10.257812 Z M 26.089844 -12.921875 C 27.609375 -12.921875 28.792969 -12.535156 29.636719 -11.753906 C 30.511719 -10.949219 30.949219 -9.808594 30.949219 -8.335938 C 30.949219 -6.839844 30.515625 -5.683594 29.648438 -4.867188 C 28.804688 -4.066406 27.617188 -3.667969 26.089844 -3.667969 L 7.582031 -3.667969 L 7.582031 -12.921875 Z M 26.089844 -12.921875 "/></g></g><g style="fill:#8c52ff;fill-opacity:1;"><g transform="translate(86.245603, 320.319428)"><path style="stroke:none" d="M 16.707031 1.527344 C 11.4375 1.527344 7.320312 0.234375 4.359375 -2.347656 C 1.339844 -4.976562 -0.167969 -8.820312 -0.167969 -13.878906 C -0.167969 -18.90625 1.339844 -22.738281 4.359375 -25.367188 C 7.320312 -27.949219 11.527344 -29.242188 16.980469 -29.242188 L 23.957031 -29.242188 C 29.40625 -29.242188 33.613281 -27.949219 36.578125 -25.367188 C 39.59375 -22.738281 41.105469 -18.90625 41.105469 -13.878906 C 41.105469 -8.820312 39.59375 -4.976562 36.578125 -2.347656 C 33.613281 0.234375 29.46875 1.527344 24.148438 1.527344 Z M 16.707031 -1.140625 L 24.148438 -1.140625 C 28.804688 -1.140625 32.363281 -2.210938 34.824219 -4.359375 C 37.234375 -6.457031 38.4375 -9.628906 38.4375 -13.878906 C 38.4375 -18.097656 37.234375 -21.257812 34.824219 -23.359375 C 32.363281 -25.503906 28.738281 -26.578125 23.957031 -26.578125 L 16.980469 -26.578125 C 12.195312 -26.578125 8.570312 -25.503906 6.109375 -23.359375 C 3.699219 -21.257812 2.496094 -18.097656 2.496094 -13.878906 C 2.496094 -9.628906 3.699219 -6.457031 6.109375 -4.359375 C 8.570312 -2.210938 12.105469 -1.140625 16.707031 -1.140625 Z M 17.40625 -21.539062 C 14.796875 -21.539062 12.804688 -21.09375 11.421875 -20.199219 C 10.140625 -19.375 9.328125 -18.027344 8.984375 -16.15625 L 7.675781 -16.398438 L 7.675781 -17.730469 L 33.257812 -17.730469 L 33.257812 -16.398438 L 31.949219 -16.15625 C 31.605469 -18.027344 30.792969 -19.375 29.511719 -20.199219 C 28.132812 -21.09375 26.136719 -21.539062 23.53125 -21.539062 Z M 17.40625 -24.203125 L 23.53125 -24.203125 C 26.660156 -24.203125 29.136719 -23.617188 30.957031 -22.441406 C 32.882812 -21.199219 34.085938 -19.265625 34.570312 -16.636719 L 34.859375 -15.0625 L 6.074219 -15.0625 L 6.363281 -16.636719 C 6.847656 -19.265625 8.050781 -21.199219 9.976562 -22.441406 C 11.796875 -23.617188 14.273438 -24.203125 17.40625 -24.203125 Z M 17.519531 -6.179688 L 23.53125 -6.179688 C 26.160156 -6.179688 28.160156 -6.625 29.527344 -7.511719 C 30.796875 -8.339844 31.601562 -9.699219 31.949219 -11.597656 L 33.257812 -11.359375 L 33.257812 -10.023438 L 7.675781 -10.023438 L 7.675781 -11.359375 L 8.988281 -11.597656 C 9.332031 -9.699219 10.144531 -8.339844 11.421875 -7.515625 C 12.804688 -6.625 14.835938 -6.179688 17.519531 -6.179688 Z M 17.519531 -3.511719 C 14.3125 -3.511719 11.796875 -4.101562 9.976562 -5.277344 C 8.050781 -6.519531 6.847656 -8.464844 6.363281 -11.121094 L 6.078125 -12.691406 L 34.855469 -12.691406 L 34.570312 -11.121094 C 34.089844 -8.46875 32.890625 -6.519531 30.980469 -5.277344 C 29.171875 -4.101562 26.6875 -3.511719 23.53125 -3.511719 Z M 17.519531 -3.511719 "/></g></g><g style="fill:#8c52ff;fill-opacity:1;"><g transform="translate(127.945281, 320.319428)"><path style="stroke:none" d="M 16.707031 1.527344 C 11.4375 1.527344 7.320312 0.234375 4.359375 -2.347656 C 1.339844 -4.976562 -0.167969 -8.820312 -0.167969 -13.878906 C -0.167969 -18.90625 1.339844 -22.738281 4.359375 -25.367188 C 7.320312 -27.949219 11.527344 -29.242188 16.980469 -29.242188 L 23.957031 -29.242188 C 29.40625 -29.242188 33.613281 -27.949219 36.578125 -25.367188 C 39.59375 -22.738281 41.105469 -18.90625 41.105469 -13.878906 C 41.105469 -8.820312 39.59375 -4.976562 36.578125 -2.347656 C 33.613281 0.234375 29.46875 1.527344 24.148438 1.527344 Z M 16.707031 -1.140625 L 24.148438 -1.140625 C 28.804688 -1.140625 32.363281 -2.210938 34.824219 -4.359375 C 37.234375 -6.457031 38.4375 -9.628906 38.4375 -13.878906 C 38.4375 -18.097656 37.234375 -21.257812 34.824219 -23.359375 C 32.363281 -25.503906 28.738281 -26.578125 23.957031 -26.578125 L 16.980469 -26.578125 C 12.195312 -26.578125 8.570312 -25.503906 6.109375 -23.359375 C 3.699219 -21.257812 2.496094 -18.097656 2.496094 -13.878906 C 2.496094 -9.628906 3.699219 -6.457031 6.109375 -4.359375 C 8.570312 -2.210938 12.105469 -1.140625 16.707031 -1.140625 Z M 17.40625 -21.539062 C 14.796875 -21.539062 12.804688 -21.09375 11.421875 -20.199219 C 10.140625 -19.375 9.328125 -18.027344 8.984375 -16.15625 L 7.675781 -16.398438 L 7.675781 -17.730469 L 33.257812 -17.730469 L 33.257812 -16.398438 L 31.949219 -16.15625 C 31.605469 -18.027344 30.792969 -19.375 29.511719 -20.199219 C 28.132812 -21.09375 26.136719 -21.539062 23.53125 -21.539062 Z M 17.40625 -24.203125 L 23.53125 -24.203125 C 26.660156 -24.203125 29.136719 -23.617188 30.957031 -22.441406 C 32.882812 -21.199219 34.085938 -19.265625 34.570312 -16.636719 L 34.859375 -15.0625 L 6.074219 -15.0625 L 6.363281 -16.636719 C 6.847656 -19.265625 8.050781 -21.199219 9.976562 -22.441406 C 11.796875 -23.617188 14.273438 -24.203125 17.40625 -24.203125 Z M 17.519531 -6.179688 L 23.53125 -6.179688 C 26.160156 -6.179688 28.160156 -6.625 29.527344 -7.511719 C 30.796875 -8.339844 31.601562 -9.699219 31.949219 -11.597656 L 33.257812 -11.359375 L 33.257812 -10.023438 L 7.675781 -10.023438 L 7.675781 -11.359375 L 8.988281 -11.597656 C 9.332031 -9.699219 10.144531 -8.339844 11.421875 -7.515625 C 12.804688 -6.625 14.835938 -6.179688 17.519531 -6.179688 Z M 17.519531 -3.511719 C 14.3125 -3.511719 11.796875 -4.101562 9.976562 -5.277344 C 8.050781 -6.519531 6.847656 -8.464844 6.363281 -11.121094 L 6.078125 -12.691406 L 34.855469 -12.691406 L 34.570312 -11.121094 C 34.089844 -8.46875 32.890625 -6.519531 30.980469 -5.277344 C 29.171875 -4.101562 26.6875 -3.511719 23.53125 -3.511719 Z M 17.519531 -3.511719 "/></g></g><g style="fill:#8c52ff;fill-opacity:1;"><g transform="translate(168.869681, 320.319428)"><path style="stroke:none" d="M 0.488281 0.195312 L 0.488281 -6.179688 L 24.113281 -6.140625 C 24.914062 -6.140625 25.496094 -6.292969 25.851562 -6.605469 C 26.15625 -6.871094 26.304688 -7.394531 26.304688 -8.179688 C 26.304688 -8.964844 26.15625 -9.488281 25.851562 -9.753906 C 25.496094 -10.0625 24.914062 -10.21875 24.109375 -10.21875 L 10.234375 -10.21875 C 7.03125 -10.21875 4.511719 -11.019531 2.671875 -12.621094 C 0.777344 -14.269531 -0.167969 -16.636719 -0.167969 -19.730469 C -0.167969 -22.824219 0.777344 -25.191406 2.671875 -26.839844 C 4.511719 -28.441406 7.03125 -29.242188 10.234375 -29.242188 L 33.351562 -29.242188 L 33.351562 -21.535156 L 10.890625 -21.578125 C 10.097656 -21.578125 9.511719 -21.425781 9.136719 -21.121094 C 8.84375 -20.882812 8.699219 -20.417969 8.699219 -19.730469 C 8.699219 -19.042969 8.84375 -18.578125 9.136719 -18.34375 C 9.511719 -18.039062 10.097656 -17.886719 10.894531 -17.886719 L 24.769531 -17.886719 C 27.976562 -17.886719 30.5 -17.070312 32.339844 -15.4375 C 34.230469 -13.761719 35.171875 -11.34375 35.171875 -8.179688 C 35.171875 -5.042969 34.230469 -2.632812 32.34375 -0.945312 C 30.503906 0.703125 27.976562 1.527344 24.769531 1.527344 L 0.488281 1.527344 Z M 3.15625 0.195312 L 1.820312 0.195312 L 1.820312 -1.140625 L 24.769531 -1.140625 C 27.300781 -1.140625 29.230469 -1.738281 30.570312 -2.929688 C 31.863281 -4.089844 32.507812 -5.835938 32.507812 -8.179688 C 32.507812 -10.542969 31.863281 -12.296875 30.574219 -13.441406 C 29.234375 -14.628906 27.300781 -15.21875 24.769531 -15.21875 L 10.894531 -15.21875 C 9.464844 -15.21875 8.320312 -15.570312 7.453125 -16.273438 C 6.507812 -17.042969 6.03125 -18.195312 6.03125 -19.730469 C 6.03125 -21.265625 6.507812 -22.417969 7.453125 -23.1875 C 8.320312 -23.890625 9.464844 -24.242188 10.894531 -24.242188 L 32.019531 -24.203125 L 32.019531 -22.871094 L 30.6875 -22.871094 L 30.6875 -27.910156 L 32.019531 -27.910156 L 32.019531 -26.578125 L 10.234375 -26.578125 C 7.699219 -26.578125 5.761719 -25.996094 4.421875 -24.832031 C 3.136719 -23.714844 2.496094 -22.011719 2.496094 -19.730469 C 2.496094 -17.449219 3.136719 -15.746094 4.421875 -14.632812 C 5.761719 -13.464844 7.699219 -12.882812 10.234375 -12.882812 L 24.109375 -12.882812 C 25.582031 -12.882812 26.746094 -12.511719 27.605469 -11.761719 C 28.515625 -10.964844 28.972656 -9.773438 28.972656 -8.179688 C 28.972656 -6.585938 28.515625 -5.390625 27.605469 -4.597656 C 26.746094 -3.847656 25.582031 -3.472656 24.109375 -3.472656 L 1.820312 -3.511719 L 1.820312 -4.84375 L 3.15625 -4.84375 Z M 3.15625 0.195312 "/></g></g><g style="fill:#8c52ff;fill-opacity:1;"><g transform="translate(203.864699, 320.319428)"><path style="stroke:none" d="M 0.410156 -13.683594 L 0.410156 -29.046875 L 37.1875 -29.046875 L 37.1875 -12.351562 L 28.242188 -12.351562 L 28.242188 -22.675781 L 29.578125 -22.675781 L 29.578125 -21.34375 L 21.125 -21.34375 L 21.125 -22.675781 L 22.457031 -22.675781 L 22.457031 1.332031 L 13.589844 1.332031 L 13.589844 -22.675781 L 14.925781 -22.675781 L 14.925781 -21.34375 L 8.023438 -21.34375 L 8.023438 -22.675781 L 9.355469 -22.675781 L 9.355469 -12.351562 L 0.410156 -12.351562 Z M 3.078125 -13.683594 L 1.746094 -13.683594 L 1.746094 -15.015625 L 8.023438 -15.015625 L 8.023438 -13.683594 L 6.691406 -13.683594 L 6.691406 -24.007812 L 16.257812 -24.007812 L 16.257812 0 L 14.925781 0 L 14.925781 -1.332031 L 21.125 -1.332031 L 21.125 0 L 19.792969 0 L 19.792969 -24.007812 L 30.910156 -24.007812 L 30.910156 -13.683594 L 29.578125 -13.683594 L 29.578125 -15.015625 L 35.855469 -15.015625 L 35.855469 -13.683594 L 34.523438 -13.683594 L 34.523438 -27.714844 L 35.855469 -27.714844 L 35.855469 -26.382812 L 1.746094 -26.382812 L 1.746094 -27.714844 L 3.078125 -27.714844 Z M 3.078125 -13.683594 "/></g></g><g style="fill:#8c52ff;fill-opacity:1;"><g transform="translate(237.579863, 320.319428)"><path style="stroke:none" d="M -0.828125 -0.546875 L 12.007812 -29.046875 L 23.304688 -29.046875 L 36.988281 1.332031 L 27.320312 1.332031 L 24.332031 -5.304688 L 25.546875 -5.851562 L 25.546875 -4.519531 L 9.769531 -4.519531 L 9.769531 -5.851562 L 10.984375 -5.304688 L 7.992188 1.332031 L -1.675781 1.332031 Z M 1.601562 0.546875 L 0.386719 0 L 0.386719 -1.332031 L 7.132812 -1.332031 L 7.132812 0 L 5.917969 -0.546875 L 8.90625 -7.1875 L 26.40625 -7.1875 L 29.394531 -0.546875 L 28.179688 0 L 28.179688 -1.332031 L 34.925781 -1.332031 L 34.925781 0 L 33.710938 0.546875 L 21.230469 -27.167969 L 22.445312 -27.714844 L 22.445312 -26.382812 L 12.871094 -26.382812 L 12.871094 -27.714844 L 14.085938 -27.167969 Z M 12.015625 -12.226562 L 23.296875 -12.226562 L 23.296875 -10.894531 L 22.082031 -10.347656 L 16.695312 -22.324219 L 17.910156 -22.871094 L 17.910156 -21.539062 L 17.40625 -21.539062 L 17.40625 -22.871094 L 18.621094 -22.324219 L 13.230469 -10.347656 L 12.015625 -10.894531 Z M 9.957031 -9.558594 L 16.542969 -24.203125 L 18.769531 -24.203125 L 25.359375 -9.558594 Z M 9.957031 -9.558594 "/></g></g><g style="fill:#8c52ff;fill-opacity:1;"><g transform="translate(272.884923, 320.319428)"><path style="stroke:none" d="M 1.378906 0 L 1.378906 -29.046875 L 8.328125 -29.046875 L 21.503906 -19.8125 L 20.738281 -18.722656 L 20.738281 -20.054688 L 20.933594 -20.054688 L 20.933594 -18.722656 L 20.167969 -19.8125 L 33.34375 -29.046875 L 40.289062 -29.046875 L 40.289062 1.332031 L 31.421875 1.332031 L 31.421875 -19.964844 L 32.753906 -19.964844 L 33.496094 -18.855469 L 24.699219 -12.964844 L 23.957031 -14.070312 L 25.289062 -14.070312 L 25.289062 1.332031 L 16.421875 1.332031 L 16.421875 -14.070312 L 17.753906 -14.070312 L 17.015625 -12.960938 L 8.175781 -18.855469 L 8.914062 -19.964844 L 10.25 -19.964844 L 10.25 1.332031 L 1.378906 1.332031 Z M 4.046875 0 L 2.714844 0 L 2.714844 -1.332031 L 8.914062 -1.332031 L 8.914062 0 L 7.582031 0 L 7.582031 -22.453125 L 19.085938 -14.785156 L 19.085938 0 L 17.753906 0 L 17.753906 -1.332031 L 23.957031 -1.332031 L 23.957031 0 L 22.625 0 L 22.625 -14.78125 L 34.089844 -22.460938 L 34.089844 0 L 32.753906 0 L 32.753906 -1.332031 L 38.957031 -1.332031 L 38.957031 0 L 37.625 0 L 37.625 -27.714844 L 38.957031 -27.714844 L 38.957031 -26.382812 L 33.761719 -26.382812 L 33.761719 -27.714844 L 34.527344 -26.625 L 21.351562 -17.390625 L 20.316406 -17.390625 L 7.144531 -26.625 L 7.90625 -27.714844 L 7.90625 -26.382812 L 2.714844 -26.382812 L 2.714844 -27.714844 L 4.046875 -27.714844 Z M 4.046875 0 "/></g></g><g style="fill:#8c52ff;fill-opacity:1;"><g transform="translate(314.545648, 320.319428)"><path style="stroke:none" d="M 1.378906 -29.046875 L 10.25 -29.046875 L 10.25 1.332031 L 1.378906 1.332031 Z M 4.046875 -26.382812 L 4.046875 -1.332031 L 7.582031 -1.332031 L 7.582031 -26.382812 Z M 4.046875 -26.382812 "/></g></g><g style="fill:#ff66c4;fill-opacity:1;"><g transform="translate(101.356813, 338.248329)"><path style="stroke:none" d="M 0.222656 0.0898438 L 0.222656 -2.820312 L 11 -2.800781 C 11.367188 -2.800781 11.632812 -2.871094 11.792969 -3.015625 C 11.933594 -3.132812 12 -3.375 12 -3.730469 C 12 -4.089844 11.933594 -4.328125 11.792969 -4.449219 C 11.632812 -4.589844 11.367188 -4.664062 11 -4.664062 L 4.667969 -4.664062 C 3.207031 -4.664062 2.058594 -5.027344 1.21875 -5.757812 C 0.355469 -6.507812 -0.078125 -7.589844 -0.078125 -9 C -0.078125 -10.414062 0.355469 -11.492188 1.21875 -12.246094 C 2.058594 -12.976562 3.207031 -13.339844 4.667969 -13.339844 L 15.214844 -13.339844 L 15.214844 -9.824219 L 4.96875 -9.84375 C 4.605469 -9.84375 4.339844 -9.773438 4.167969 -9.636719 C 4.035156 -9.527344 3.96875 -9.316406 3.96875 -9 C 3.96875 -8.6875 4.035156 -8.476562 4.167969 -8.367188 C 4.339844 -8.230469 4.605469 -8.160156 4.96875 -8.160156 L 11.300781 -8.160156 C 12.761719 -8.160156 13.914062 -7.789062 14.753906 -7.042969 C 15.617188 -6.277344 16.046875 -5.175781 16.046875 -3.730469 C 16.046875 -2.300781 15.617188 -1.199219 14.757812 -0.429688 C 13.917969 0.320312 12.765625 0.695312 11.300781 0.695312 L 0.222656 0.695312 Z M 1.4375 0.0898438 L 0.832031 0.0898438 L 0.832031 -0.519531 L 11.300781 -0.519531 C 12.453125 -0.519531 13.335938 -0.792969 13.945312 -1.335938 C 14.535156 -1.863281 14.832031 -2.664062 14.832031 -3.730469 C 14.832031 -4.8125 14.535156 -5.609375 13.949219 -6.132812 C 13.339844 -6.671875 12.457031 -6.945312 11.300781 -6.945312 L 4.96875 -6.945312 C 4.320312 -6.945312 3.796875 -7.105469 3.402344 -7.425781 C 2.96875 -7.777344 2.753906 -8.300781 2.753906 -9 C 2.753906 -9.703125 2.96875 -10.226562 3.402344 -10.578125 C 3.796875 -10.898438 4.320312 -11.058594 4.96875 -11.058594 L 14.609375 -11.042969 L 14.609375 -10.433594 L 14 -10.433594 L 14 -12.734375 L 14.609375 -12.734375 L 14.609375 -12.125 L 4.667969 -12.125 C 3.511719 -12.125 2.628906 -11.859375 2.015625 -11.328125 C 1.429688 -10.820312 1.136719 -10.042969 1.136719 -9 C 1.136719 -7.960938 1.429688 -7.183594 2.015625 -6.675781 C 2.628906 -6.144531 3.511719 -5.878906 4.667969 -5.878906 L 11 -5.878906 C 11.671875 -5.878906 12.203125 -5.707031 12.59375 -5.367188 C 13.007812 -5.003906 13.21875 -4.457031 13.21875 -3.730469 C 13.21875 -3.003906 13.007812 -2.460938 12.59375 -2.097656 C 12.203125 -1.753906 11.671875 -1.585938 11 -1.585938 L 0.832031 -1.601562 L 0.832031 -2.210938 L 1.4375 -2.210938 Z M 1.4375 0.0898438 "/></g></g><g style="fill:#ff66c4;fill-opacity:1;"><g transform="translate(117.322536, 338.248329)"><path style="stroke:none" d="M 0.363281 0 L 0.363281 -9.714844 L 12.769531 -9.714844 C 13.980469 -9.714844 14.890625 -9.394531 15.492188 -8.753906 C 16.085938 -8.125 16.382812 -7.3125 16.382812 -6.3125 L 16.382812 0.609375 L 12.601562 0.609375 L 12.601562 -5.996094 C 12.601562 -6.183594 12.570312 -6.308594 12.511719 -6.371094 C 12.445312 -6.433594 12.3125 -6.464844 12.113281 -6.464844 L 9.65625 -6.464844 L 9.65625 -7.074219 L 10.265625 -7.074219 L 10.265625 0.609375 L 6.484375 0.609375 L 6.484375 -7.074219 L 7.089844 -7.074219 L 7.089844 -6.464844 L 3.535156 -6.464844 L 3.535156 -7.074219 L 4.144531 -7.074219 L 4.144531 0.609375 L 0.363281 0.609375 Z M 1.582031 0 L 0.972656 0 L 0.972656 -0.609375 L 3.535156 -0.609375 L 3.535156 0 L 2.929688 0 L 2.929688 -7.683594 L 7.699219 -7.683594 L 7.699219 0 L 7.089844 0 L 7.089844 -0.609375 L 9.65625 -0.609375 L 9.65625 0 L 9.046875 0 L 9.046875 -7.683594 L 12.113281 -7.683594 C 12.644531 -7.683594 13.0625 -7.535156 13.363281 -7.238281 C 13.667969 -6.9375 13.820312 -6.523438 13.820312 -5.996094 L 13.820312 0 L 13.210938 0 L 13.210938 -0.609375 L 15.773438 -0.609375 L 15.773438 0 L 15.167969 0 L 15.167969 -6.3125 C 15.167969 -6.988281 14.980469 -7.527344 14.609375 -7.921875 C 14.246094 -8.308594 13.632812 -8.5 12.769531 -8.5 L 0.972656 -8.5 L 0.972656 -9.109375 L 1.582031 -9.109375 Z M 1.582031 0 "/></g></g><g style="fill:#ff66c4;fill-opacity:1;"><g transform="translate(133.977806, 338.248329)"><path style="stroke:none" d="M 3.394531 0.609375 C 2.277344 0.609375 1.40625 0.308594 0.78125 -0.285156 C 0.152344 -0.886719 -0.164062 -1.726562 -0.164062 -2.792969 C -0.164062 -3.851562 0.152344 -4.683594 0.78125 -5.285156 C 1.40625 -5.882812 2.277344 -6.179688 3.394531 -6.179688 L 10.1875 -6.179688 L 10.1875 -5.570312 L 9.578125 -5.570312 L 9.578125 -5.996094 C 9.578125 -6.1875 9.546875 -6.316406 9.488281 -6.378906 C 9.429688 -6.4375 9.308594 -6.464844 9.125 -6.464844 L 1.019531 -6.464844 L 1.019531 -9.714844 L 9.796875 -9.714844 C 11.050781 -9.714844 11.957031 -9.40625 12.527344 -8.785156 C 13.082031 -8.179688 13.359375 -7.355469 13.359375 -6.3125 L 13.359375 0.609375 Z M 3.394531 -0.609375 L 12.75 -0.609375 L 12.75 0 L 12.144531 0 L 12.144531 -6.3125 C 12.144531 -7.039062 11.972656 -7.589844 11.628906 -7.964844 C 11.304688 -8.320312 10.691406 -8.5 9.796875 -8.5 L 1.628906 -8.5 L 1.628906 -9.109375 L 2.234375 -9.109375 L 2.234375 -7.074219 L 1.628906 -7.074219 L 1.628906 -7.683594 L 9.125 -7.683594 C 9.648438 -7.683594 10.058594 -7.53125 10.355469 -7.230469 C 10.648438 -6.933594 10.792969 -6.519531 10.792969 -5.996094 L 10.792969 -4.960938 L 3.394531 -4.960938 C 2.601562 -4.960938 2.011719 -4.777344 1.621094 -4.40625 C 1.242188 -4.042969 1.050781 -3.503906 1.050781 -2.792969 C 1.050781 -2.070312 1.242188 -1.527344 1.621094 -1.164062 C 2.011719 -0.792969 2.601562 -0.609375 3.394531 -0.609375 Z M 3.855469 -2.640625 L 10.1875 -2.640625 L 10.1875 -2.035156 L 9.578125 -2.035156 L 9.578125 -3.535156 L 10.1875 -3.535156 L 10.1875 -2.929688 L 3.855469 -2.929688 C 3.820312 -2.929688 3.792969 -2.925781 3.777344 -2.917969 C 3.777344 -2.921875 3.78125 -2.921875 3.78125 -2.921875 C 3.765625 -2.902344 3.757812 -2.859375 3.757812 -2.792969 C 3.757812 -2.722656 3.769531 -2.671875 3.792969 -2.644531 C 3.789062 -2.648438 3.789062 -2.648438 3.785156 -2.648438 C 3.800781 -2.644531 3.824219 -2.640625 3.855469 -2.640625 Z M 3.855469 -1.425781 C 3.449219 -1.425781 3.121094 -1.566406 2.875 -1.84375 C 2.652344 -2.101562 2.539062 -2.417969 2.539062 -2.792969 C 2.539062 -3.175781 2.65625 -3.492188 2.882812 -3.742188 C 3.128906 -4.011719 3.453125 -4.144531 3.855469 -4.144531 L 10.792969 -4.144531 L 10.792969 -1.425781 Z M 3.855469 -1.425781 "/></g></g><g style="fill:#ff66c4;fill-opacity:1;"><g transform="translate(147.698071, 338.248329)"><path style="stroke:none" d="M 0.363281 0 L 0.363281 -9.714844 L 7.941406 -9.714844 C 9.140625 -9.714844 10.042969 -9.394531 10.648438 -8.753906 C 11.242188 -8.125 11.539062 -7.3125 11.539062 -6.3125 L 11.539062 -3.8125 L 7.722656 -3.8125 L 7.722656 -5.996094 C 7.722656 -6.179688 7.691406 -6.304688 7.632812 -6.359375 C 7.578125 -6.417969 7.453125 -6.449219 7.269531 -6.449219 L 3.574219 -6.449219 L 3.574219 -7.054688 L 4.179688 -7.054688 L 4.179688 0.609375 L 0.363281 0.609375 Z M 1.582031 0 L 0.972656 0 L 0.972656 -0.609375 L 3.574219 -0.609375 L 3.574219 0 L 2.964844 0 L 2.964844 -7.664062 L 7.269531 -7.664062 C 7.789062 -7.664062 8.199219 -7.515625 8.496094 -7.222656 C 8.789062 -6.925781 8.9375 -6.515625 8.9375 -5.996094 L 8.9375 -4.421875 L 8.328125 -4.421875 L 8.328125 -5.03125 L 10.929688 -5.03125 L 10.929688 -4.421875 L 10.320312 -4.421875 L 10.320312 -6.3125 C 10.320312 -6.988281 10.136719 -7.527344 9.761719 -7.921875 C 9.398438 -8.308594 8.792969 -8.5 7.941406 -8.5 L 0.972656 -8.5 L 0.972656 -9.109375 L 1.582031 -9.109375 Z M 1.582031 0 "/></g></g><g style="fill:#ff66c4;fill-opacity:1;"><g transform="translate(159.066797, 338.248329)"><path style="stroke:none" d="M 5.710938 0.609375 C 4.511719 0.609375 3.609375 0.289062 3.007812 -0.351562 C 2.414062 -0.980469 2.117188 -1.796875 2.117188 -2.792969 L 2.117188 -7.074219 L 2.722656 -7.074219 L 2.722656 -6.464844 L -0.519531 -6.464844 L -0.519531 -9.714844 L 2.722656 -9.714844 L 2.722656 -9.109375 L 2.117188 -9.109375 L 2.117188 -12.511719 L 5.894531 -12.511719 L 5.894531 -9.109375 L 5.289062 -9.109375 L 5.289062 -9.714844 L 9.679688 -9.714844 L 9.679688 -6.464844 L 5.289062 -6.464844 L 5.289062 -7.074219 L 5.894531 -7.074219 L 5.894531 -3.113281 C 5.894531 -2.917969 5.925781 -2.792969 5.988281 -2.730469 C 6.042969 -2.671875 6.164062 -2.640625 6.347656 -2.640625 L 10.175781 -2.640625 L 10.175781 0.609375 Z M 5.710938 -0.609375 L 9.566406 -0.609375 L 9.566406 0 L 8.960938 0 L 8.960938 -2.035156 L 9.566406 -2.035156 L 9.566406 -1.425781 L 6.347656 -1.425781 C 5.824219 -1.425781 5.414062 -1.578125 5.121094 -1.878906 C 4.828125 -2.175781 4.679688 -2.585938 4.679688 -3.113281 L 4.679688 -7.683594 L 9.074219 -7.683594 L 9.074219 -7.074219 L 8.464844 -7.074219 L 8.464844 -9.109375 L 9.074219 -9.109375 L 9.074219 -8.5 L 4.679688 -8.5 L 4.679688 -11.902344 L 5.289062 -11.902344 L 5.289062 -11.292969 L 2.722656 -11.292969 L 2.722656 -11.902344 L 3.332031 -11.902344 L 3.332031 -8.5 L 0.0898438 -8.5 L 0.0898438 -9.109375 L 0.695312 -9.109375 L 0.695312 -7.074219 L 0.0898438 -7.074219 L 0.0898438 -7.683594 L 3.332031 -7.683594 L 3.332031 -2.792969 C 3.332031 -2.117188 3.519531 -1.582031 3.890625 -1.1875 C 4.253906 -0.800781 4.863281 -0.609375 5.710938 -0.609375 Z M 5.710938 -0.609375 "/></g></g><g style="fill:#ff66c4;fill-opacity:1;"><g transform="translate(168.985702, 338.248329)"><path style="stroke:none" d=""/></g></g><g style="fill:#ff66c4;fill-opacity:1;"><g transform="translate(175.173966, 338.248329)"><path style="stroke:none" d="M 0.628906 0 L 0.628906 -13.214844 L 11.882812 -13.253906 C 13.4375 -13.253906 14.609375 -12.910156 15.402344 -12.230469 C 16.222656 -11.523438 16.628906 -10.496094 16.628906 -9.144531 C 16.628906 -7.765625 16.15625 -6.742188 15.203125 -6.078125 L 14.855469 -6.578125 L 15.148438 -7.113281 C 15.773438 -6.769531 16.238281 -6.3125 16.542969 -5.742188 C 16.835938 -5.1875 16.984375 -4.492188 16.984375 -3.660156 C 16.984375 -2.292969 16.578125 -1.238281 15.769531 -0.496094 C 14.976562 0.226562 13.796875 0.589844 12.238281 0.589844 L 0.628906 0.609375 Z M 1.847656 0 L 1.238281 0 L 1.238281 -0.609375 L 12.238281 -0.625 C 13.484375 -0.625 14.386719 -0.882812 14.949219 -1.394531 C 15.496094 -1.894531 15.769531 -2.648438 15.769531 -3.660156 C 15.769531 -4.289062 15.667969 -4.792969 15.46875 -5.171875 C 15.277344 -5.527344 14.976562 -5.820312 14.5625 -6.046875 L 13.703125 -6.515625 L 14.507812 -7.078125 C 15.113281 -7.5 15.414062 -8.1875 15.414062 -9.144531 C 15.414062 -10.125 15.144531 -10.847656 14.609375 -11.308594 C 14.046875 -11.792969 13.136719 -12.035156 11.886719 -12.035156 L 1.238281 -12 L 1.238281 -12.609375 L 1.847656 -12.609375 Z M 11.546875 -9.773438 L 4.066406 -9.773438 L 4.066406 -10.382812 L 4.675781 -10.382812 L 4.675781 -7.550781 L 4.066406 -7.550781 L 4.066406 -8.160156 L 11.546875 -8.160156 C 11.929688 -8.160156 12.195312 -8.226562 12.347656 -8.367188 C 12.484375 -8.488281 12.550781 -8.699219 12.550781 -9 C 12.550781 -9.273438 12.488281 -9.464844 12.359375 -9.574219 C 12.207031 -9.707031 11.933594 -9.773438 11.546875 -9.773438 Z M 11.546875 -10.988281 C 12.234375 -10.988281 12.769531 -10.824219 13.152344 -10.496094 C 13.5625 -10.148438 13.765625 -9.648438 13.765625 -9 C 13.765625 -8.339844 13.566406 -7.824219 13.164062 -7.460938 C 12.777344 -7.117188 12.242188 -6.945312 11.546875 -6.945312 L 3.460938 -6.945312 L 3.460938 -10.988281 Z M 11.902344 -4.679688 L 4.066406 -4.679688 L 4.066406 -5.289062 L 4.675781 -5.289062 L 4.675781 -2.28125 L 4.066406 -2.28125 L 4.066406 -2.890625 L 11.902344 -2.890625 C 12.277344 -2.890625 12.539062 -2.960938 12.691406 -3.105469 C 12.832031 -3.238281 12.902344 -3.46875 12.902344 -3.800781 C 12.902344 -4.121094 12.835938 -4.34375 12.695312 -4.46875 C 12.546875 -4.609375 12.28125 -4.679688 11.902344 -4.679688 Z M 11.902344 -5.894531 C 12.597656 -5.894531 13.136719 -5.71875 13.523438 -5.363281 C 13.921875 -4.996094 14.121094 -4.476562 14.121094 -3.800781 C 14.121094 -3.121094 13.921875 -2.59375 13.527344 -2.21875 C 13.140625 -1.855469 12.601562 -1.671875 11.902344 -1.671875 L 3.460938 -1.671875 L 3.460938 -5.894531 Z M 11.902344 -5.894531 "/></g></g><g style="fill:#ff66c4;fill-opacity:1;"><g transform="translate(192.253569, 338.248329)"><path style="stroke:none" d="M 0.363281 0 L 0.363281 -9.714844 L 7.941406 -9.714844 C 9.140625 -9.714844 10.042969 -9.394531 10.648438 -8.753906 C 11.242188 -8.125 11.539062 -7.3125 11.539062 -6.3125 L 11.539062 -3.8125 L 7.722656 -3.8125 L 7.722656 -5.996094 C 7.722656 -6.179688 7.691406 -6.304688 7.632812 -6.359375 C 7.578125 -6.417969 7.453125 -6.449219 7.269531 -6.449219 L 3.574219 -6.449219 L 3.574219 -7.054688 L 4.179688 -7.054688 L 4.179688 0.609375 L 0.363281 0.609375 Z M 1.582031 0 L 0.972656 0 L 0.972656 -0.609375 L 3.574219 -0.609375 L 3.574219 0 L 2.964844 0 L 2.964844 -7.664062 L 7.269531 -7.664062 C 7.789062 -7.664062 8.199219 -7.515625 8.496094 -7.222656 C 8.789062 -6.925781 8.9375 -6.515625 8.9375 -5.996094 L 8.9375 -4.421875 L 8.328125 -4.421875 L 8.328125 -5.03125 L 10.929688 -5.03125 L 10.929688 -4.421875 L 10.320312 -4.421875 L 10.320312 -6.3125 C 10.320312 -6.988281 10.136719 -7.527344 9.761719 -7.921875 C 9.398438 -8.308594 8.792969 -8.5 7.941406 -8.5 L 0.972656 -8.5 L 0.972656 -9.109375 L 1.582031 -9.109375 Z M 1.582031 0 "/></g></g><g style="fill:#ff66c4;fill-opacity:1;"><g transform="translate(203.6223, 338.248329)"><path style="stroke:none" d="M 3.394531 0.609375 C 2.277344 0.609375 1.40625 0.308594 0.78125 -0.285156 C 0.152344 -0.886719 -0.164062 -1.726562 -0.164062 -2.792969 C -0.164062 -3.851562 0.152344 -4.683594 0.78125 -5.285156 C 1.40625 -5.882812 2.277344 -6.179688 3.394531 -6.179688 L 10.1875 -6.179688 L 10.1875 -5.570312 L 9.578125 -5.570312 L 9.578125 -5.996094 C 9.578125 -6.1875 9.546875 -6.316406 9.488281 -6.378906 C 9.429688 -6.4375 9.308594 -6.464844 9.125 -6.464844 L 1.019531 -6.464844 L 1.019531 -9.714844 L 9.796875 -9.714844 C 11.050781 -9.714844 11.957031 -9.40625 12.527344 -8.785156 C 13.082031 -8.179688 13.359375 -7.355469 13.359375 -6.3125 L 13.359375 0.609375 Z M 3.394531 -0.609375 L 12.75 -0.609375 L 12.75 0 L 12.144531 0 L 12.144531 -6.3125 C 12.144531 -7.039062 11.972656 -7.589844 11.628906 -7.964844 C 11.304688 -8.320312 10.691406 -8.5 9.796875 -8.5 L 1.628906 -8.5 L 1.628906 -9.109375 L 2.234375 -9.109375 L 2.234375 -7.074219 L 1.628906 -7.074219 L 1.628906 -7.683594 L 9.125 -7.683594 C 9.648438 -7.683594 10.058594 -7.53125 10.355469 -7.230469 C 10.648438 -6.933594 10.792969 -6.519531 10.792969 -5.996094 L 10.792969 -4.960938 L 3.394531 -4.960938 C 2.601562 -4.960938 2.011719 -4.777344 1.621094 -4.40625 C 1.242188 -4.042969 1.050781 -3.503906 1.050781 -2.792969 C 1.050781 -2.070312 1.242188 -1.527344 1.621094 -1.164062 C 2.011719 -0.792969 2.601562 -0.609375 3.394531 -0.609375 Z M 3.855469 -2.640625 L 10.1875 -2.640625 L 10.1875 -2.035156 L 9.578125 -2.035156 L 9.578125 -3.535156 L 10.1875 -3.535156 L 10.1875 -2.929688 L 3.855469 -2.929688 C 3.820312 -2.929688 3.792969 -2.925781 3.777344 -2.917969 C 3.777344 -2.921875 3.78125 -2.921875 3.78125 -2.921875 C 3.765625 -2.902344 3.757812 -2.859375 3.757812 -2.792969 C 3.757812 -2.722656 3.769531 -2.671875 3.792969 -2.644531 C 3.789062 -2.648438 3.789062 -2.648438 3.785156 -2.648438 C 3.800781 -2.644531 3.824219 -2.640625 3.855469 -2.640625 Z M 3.855469 -1.425781 C 3.449219 -1.425781 3.121094 -1.566406 2.875 -1.84375 C 2.652344 -2.101562 2.539062 -2.417969 2.539062 -2.792969 C 2.539062 -3.175781 2.65625 -3.492188 2.882812 -3.742188 C 3.128906 -4.011719 3.453125 -4.144531 3.855469 -4.144531 L 10.792969 -4.144531 L 10.792969 -1.425781 Z M 3.855469 -1.425781 "/></g></g><g style="fill:#ff66c4;fill-opacity:1;"><g transform="translate(217.342565, 338.248329)"><path style="stroke:none" d="M 0.363281 0 L 0.363281 -9.714844 L 8.914062 -9.714844 C 10.128906 -9.714844 11.03125 -9.394531 11.628906 -8.753906 C 12.21875 -8.125 12.511719 -7.308594 12.511719 -6.3125 L 12.511719 0.609375 L 8.730469 0.609375 L 8.730469 -6.011719 C 8.730469 -6.199219 8.699219 -6.320312 8.640625 -6.378906 C 8.585938 -6.4375 8.460938 -6.464844 8.277344 -6.464844 L 3.535156 -6.464844 L 3.535156 -7.074219 L 4.144531 -7.074219 L 4.144531 0.609375 L 0.363281 0.609375 Z M 1.582031 0 L 0.972656 0 L 0.972656 -0.609375 L 3.535156 -0.609375 L 3.535156 0 L 2.929688 0 L 2.929688 -7.683594 L 8.277344 -7.683594 C 8.796875 -7.683594 9.207031 -7.535156 9.503906 -7.238281 C 9.796875 -6.941406 9.945312 -6.535156 9.945312 -6.011719 L 9.945312 0 L 9.335938 0 L 9.335938 -0.609375 L 11.902344 -0.609375 L 11.902344 0 L 11.292969 0 L 11.292969 -6.3125 C 11.292969 -6.992188 11.109375 -7.527344 10.742188 -7.925781 C 10.382812 -8.308594 9.773438 -8.5 8.914062 -8.5 L 0.972656 -8.5 L 0.972656 -9.109375 L 1.582031 -9.109375 Z M 1.582031 0 "/></g></g><g style="fill:#ff66c4;fill-opacity:1;"><g transform="translate(230.125757, 338.248329)"><path style="stroke:none" d="M 11.578125 0 L 11.578125 -12.644531 L 12.183594 -12.644531 L 12.183594 -12.035156 L 9.621094 -12.035156 L 9.621094 -12.644531 L 10.230469 -12.644531 L 10.230469 0 L 9.621094 0 L 9.621094 -0.609375 L 12.183594 -0.609375 L 12.183594 0 Z M 12.792969 0.609375 L 9.011719 0.609375 L 9.011719 -13.253906 L 12.792969 -13.253906 Z M 11.136719 0 L 11.136719 -2.035156 L 11.742188 -2.035156 L 11.742188 -1.425781 L 5.640625 -1.425781 C 4.703125 -1.425781 3.972656 -1.695312 3.445312 -2.238281 C 2.925781 -2.773438 2.664062 -3.542969 2.664062 -4.546875 C 2.664062 -5.558594 2.925781 -6.332031 3.445312 -6.871094 C 3.972656 -7.410156 4.703125 -7.683594 5.640625 -7.683594 L 11.566406 -7.683594 L 11.566406 -7.074219 L 10.957031 -7.074219 L 10.957031 -9.109375 L 11.566406 -9.109375 L 11.566406 -8.5 L 5.640625 -8.5 C 4.214844 -8.5 3.117188 -8.160156 2.347656 -7.484375 C 1.601562 -6.828125 1.226562 -5.847656 1.226562 -4.546875 C 1.226562 -3.253906 1.601562 -2.28125 2.347656 -1.625 C 3.117188 -0.945312 4.214844 -0.609375 5.640625 -0.609375 L 11.742188 -0.609375 L 11.742188 0 Z M 12.351562 0.609375 L 5.640625 0.609375 C 3.910156 0.609375 2.542969 0.167969 1.542969 -0.710938 C 0.523438 -1.609375 0.0117188 -2.886719 0.0117188 -4.546875 C 0.0117188 -6.214844 0.523438 -7.496094 1.542969 -8.398438 C 2.542969 -9.277344 3.910156 -9.714844 5.640625 -9.714844 L 12.175781 -9.714844 L 12.175781 -6.464844 L 5.640625 -6.464844 C 5.046875 -6.464844 4.605469 -6.316406 4.316406 -6.023438 C 4.027344 -5.722656 3.878906 -5.230469 3.878906 -4.546875 C 3.878906 -3.871094 4.027344 -3.386719 4.316406 -3.085938 C 4.605469 -2.789062 5.046875 -2.640625 5.640625 -2.640625 L 12.351562 -2.640625 Z M 12.351562 0.609375 "/></g></g><g style="fill:#ff66c4;fill-opacity:1;"><g transform="translate(243.280237, 338.248329)"><path style="stroke:none" d="M 0.363281 0 L 0.363281 -9.714844 L 4.144531 -9.714844 L 4.144531 0.609375 L 0.363281 0.609375 Z M 1.582031 0 L 0.972656 0 L 0.972656 -0.609375 L 3.535156 -0.609375 L 3.535156 0 L 2.929688 0 L 2.929688 -9.109375 L 3.535156 -9.109375 L 3.535156 -8.5 L 0.972656 -8.5 L 0.972656 -9.109375 L 1.582031 -9.109375 Z M 0.347656 -10.609375 L 0.347656 -13.21875 L 4.164062 -13.21875 L 4.164062 -10.003906 L 0.347656 -10.003906 Z M 1.5625 -10.609375 L 0.953125 -10.609375 L 0.953125 -11.21875 L 3.554688 -11.21875 L 3.554688 -10.609375 L 2.945312 -10.609375 L 2.945312 -12.609375 L 3.554688 -12.609375 L 3.554688 -12 L 0.953125 -12 L 0.953125 -12.609375 L 1.5625 -12.609375 Z M 1.5625 -10.609375 "/></g></g><g style="fill:#ff66c4;fill-opacity:1;"><g transform="translate(247.788827, 338.248329)"><path style="stroke:none" d="M 0.363281 0 L 0.363281 -9.714844 L 8.914062 -9.714844 C 10.128906 -9.714844 11.03125 -9.394531 11.628906 -8.753906 C 12.21875 -8.125 12.511719 -7.308594 12.511719 -6.3125 L 12.511719 0.609375 L 8.730469 0.609375 L 8.730469 -6.011719 C 8.730469 -6.199219 8.699219 -6.320312 8.640625 -6.378906 C 8.585938 -6.4375 8.460938 -6.464844 8.277344 -6.464844 L 3.535156 -6.464844 L 3.535156 -7.074219 L 4.144531 -7.074219 L 4.144531 0.609375 L 0.363281 0.609375 Z M 1.582031 0 L 0.972656 0 L 0.972656 -0.609375 L 3.535156 -0.609375 L 3.535156 0 L 2.929688 0 L 2.929688 -7.683594 L 8.277344 -7.683594 C 8.796875 -7.683594 9.207031 -7.535156 9.503906 -7.238281 C 9.796875 -6.941406 9.945312 -6.535156 9.945312 -6.011719 L 9.945312 0 L 9.335938 0 L 9.335938 -0.609375 L 11.902344 -0.609375 L 11.902344 0 L 11.292969 0 L 11.292969 -6.3125 C 11.292969 -6.992188 11.109375 -7.527344 10.742188 -7.925781 C 10.382812 -8.308594 9.773438 -8.5 8.914062 -8.5 L 0.972656 -8.5 L 0.972656 -9.109375 L 1.582031 -9.109375 Z M 1.582031 0 "/></g></g><g style="fill:#ff66c4;fill-opacity:1;"><g transform="translate(260.572019, 338.248329)"><path style="stroke:none" d="M 2.523438 3.980469 L 2.523438 1.335938 L 8.472656 1.335938 C 8.65625 1.335938 8.777344 1.308594 8.832031 1.25 C 8.894531 1.1875 8.925781 1.058594 8.925781 0.867188 L 8.925781 0 L 9.53125 0 L 9.53125 0.609375 L 5.640625 0.609375 C 3.910156 0.609375 2.542969 0.167969 1.542969 -0.710938 C 0.523438 -1.609375 0.0117188 -2.886719 0.0117188 -4.546875 C 0.0117188 -6.214844 0.523438 -7.496094 1.542969 -8.398438 C 2.542969 -9.277344 3.910156 -9.714844 5.640625 -9.714844 L 12.703125 -9.714844 L 12.703125 1.183594 C 12.703125 2.183594 12.40625 2.996094 11.8125 3.625 C 11.210938 4.265625 10.308594 4.585938 9.109375 4.585938 L 2.523438 4.585938 Z M 3.738281 3.980469 L 3.128906 3.980469 L 3.128906 3.371094 L 9.109375 3.371094 C 9.957031 3.371094 10.566406 3.179688 10.929688 2.792969 C 11.300781 2.398438 11.488281 1.859375 11.488281 1.183594 L 11.488281 -9.109375 L 12.097656 -9.109375 L 12.097656 -8.5 L 5.640625 -8.5 C 4.214844 -8.5 3.117188 -8.160156 2.347656 -7.484375 C 1.601562 -6.828125 1.226562 -5.847656 1.226562 -4.546875 C 1.226562 -3.253906 1.601562 -2.28125 2.347656 -1.625 C 3.117188 -0.945312 4.214844 -0.609375 5.640625 -0.609375 L 10.140625 -0.609375 L 10.140625 0.867188 C 10.140625 1.390625 9.992188 1.804688 9.699219 2.101562 C 9.40625 2.402344 8.996094 2.554688 8.472656 2.554688 L 3.128906 2.554688 L 3.128906 1.945312 L 3.738281 1.945312 Z M 5.640625 -2.640625 L 9.53125 -2.640625 L 9.53125 -2.035156 L 8.925781 -2.035156 L 8.925781 -7.074219 L 9.53125 -7.074219 L 9.53125 -6.464844 L 5.640625 -6.464844 C 5.046875 -6.464844 4.605469 -6.316406 4.316406 -6.023438 C 4.027344 -5.722656 3.878906 -5.230469 3.878906 -4.546875 C 3.878906 -3.871094 4.027344 -3.386719 4.316406 -3.085938 C 4.605469 -2.789062 5.046875 -2.640625 5.640625 -2.640625 Z M 5.640625 -1.425781 C 4.703125 -1.425781 3.972656 -1.695312 3.445312 -2.238281 C 2.925781 -2.773438 2.664062 -3.542969 2.664062 -4.546875 C 2.664062 -5.558594 2.925781 -6.332031 3.445312 -6.871094 C 3.972656 -7.410156 4.703125 -7.683594 5.640625 -7.683594 L 10.140625 -7.683594 L 10.140625 -1.425781 Z M 5.640625 -1.425781 "/></g></g></g></svg>